REM COMMENT mbid-to-cue v1
REM DATE 1996-09-23
REM LUD_DURATION_IN_SECONDS 4261.290000
PERFORMER "PC & Strictly Kev"
TITLE "Blechsdöttir: The Nexus Phase"
REM MUSICBRAINZ_ALBUM_ID da8ebcc3-3da5-4cc8-be41-9e82ba17bea6
FILE "disc1.m4a" WAVE
  TRACK 01 AUDIO
    PERFORMER "Autechre / Disjecta"
    TITLE "Lost / Kracht"
    INDEX 00 00:00:00
    INDEX 01 00:00:32
  TRACK 02 AUDIO
    PERFORMER "Autechre"
    TITLE "Rotar / Flutter"
    INDEX 01 02:26:22
    INDEX 02 03:26:60
  TRACK 03 AUDIO
    PERFORMER "LFO"
    TITLE "Them"
    INDEX 01 04:26:35
  TRACK 04 AUDIO
    PERFORMER "Plaid"
    TITLE "Abla Eedio"
    INDEX 01 06:20:07
  TRACK 05 AUDIO
    PERFORMER "Aphex Twin"
    TITLE "Ventolin Plain-An-Gwarry"
    INDEX 01 10:05:52
  TRACK 06 AUDIO
    PERFORMER "Autechre"
    TITLE "Rsdio"
    INDEX 01 13:35:70
  TRACK 07 AUDIO
    PERFORMER "Jake Slazenger"
    TITLE "Nautilus"
    INDEX 01 16:41:20
  TRACK 08 AUDIO
    PERFORMER "Nightmares on Wax / Aphex Twin"
    TITLE "Dredd Overboard (DJ Food Lifesaver mix) / Cow Cud Is a Twin"
    INDEX 01 19:49:72
    INDEX 02 21:55:55
  TRACK 09 AUDIO
    PERFORMER "AFX"
    TITLE "Laughable Butane Bob"
    INDEX 01 23:28:47
  TRACK 10 AUDIO
    PERFORMER "Freeform"
    TITLE "Brieflei"
    INDEX 01 26:21:55
  TRACK 11 AUDIO
    PERFORMER "The Black Dog"
    TITLE "Chase the Manhattan"
    INDEX 01 29:26:45
  TRACK 12 AUDIO
    PERFORMER "B12"
    TITLE "Infinite Lites (Primitives mix)"
    INDEX 01 30:52:62
  TRACK 13 AUDIO
    PERFORMER "Elecktroids / DJ Mink / Nightmares on Wax"
    TITLE "Midnight Drive / Hey! Hey! Can U Relate? / Dextrous"
    INDEX 01 34:53:65
    INDEX 02 36:34:27
    INDEX 03 36:42:20
  TRACK 14 AUDIO
    PERFORMER "Jimi Tenor / Aphex Twin"
    TITLE "Downtown / SAW:II CD2.4"
    INDEX 01 37:43:22
    INDEX 02 40:58:02
  TRACK 15 AUDIO
    PERFORMER "Nightmares on Wax"
    TITLE "What I'm Feelin' (Rae + Christian mix)"
    INDEX 01 41:25:10
  TRACK 16 AUDIO
    PERFORMER "LFO / Mira Calix"
    TITLE "Shove Piggy Shove / Humba"
    INDEX 01 45:35:72
    INDEX 02 47:45:62
  TRACK 17 AUDIO
    PERFORMER "Red Snapper"
    TITLE "The Last One"
    INDEX 01 48:59:40
  TRACK 18 AUDIO
    PERFORMER "Aphex Twin / DJ Food"
    TITLE "SAW:II CD2.6 / Sexy Bit Courtesy of NinjaTune"
    INDEX 01 52:24:32
  TRACK 19 AUDIO
    PERFORMER "Nightmares on Wax"
    TITLE "Gambia Via Vagator Beach (Mr. Scruff mix)"
    INDEX 01 56:15:72
  TRACK 20 AUDIO
    PERFORMER "Squarepusher"
    TITLE "Problem Child"
    INDEX 01 57:51:52
  TRACK 21 AUDIO
    PERFORMER "Mike Ink"
    TITLE "Paroles"
    INDEX 01 61:17:55
  TRACK 22 AUDIO
    PERFORMER "Aphex Twin"
    TITLE "Ventolin (Wheeze mix)"
    INDEX 01 65:14:50
  TRACK 23 AUDIO
    PERFORMER "Jake Slazenger"
    TITLE "Slowdance"
    INDEX 01 68:00:00
    INDEX 02 70:53:05

